# xmcd
#
# Track frame offsets:
#	150
#	2940
#	22902
#	47852
#	69792
#	87162
#	103417
#	120432
#	135310
#	147895
#	169440
#	185522
#	210692
#	222480
#	237915
#
# Disc length: 3210
#
# Revision: 1
# Processed by: cddbd v1.5.1PL0 Copyright (c) Steve Scherf et al.
# Submitted via: CDex 1.51
# Normalized: r0:TRMNUM
#
DISCID=d40c880f
DTITLE=PETE GAVIN - Life After Blues
DYEAR=1997
DGENRE=Blues
TTITLE0=The Arrival
TTITLE1=Fun On The Run
TTITLE2=Main Man
TTITLE3=Wasting Time Blues
TTITLE4=Why Love? 
TTITLE5=Make and Shake Boogie
TTITLE6=Dust My Broom
TTITLE7=BIg Boss Man
TTITLE8=You've Got To Move
TTITLE9=Domestic Bliss
TTITLE10=Paternoster Boogie
TTITLE11=Hound Dog Dream
TTITLE12=My Old Bus
TTITLE13=Life After Blues
TTITLE14=The Departure
EXTD=YEAR: 1997
EXTT0=
EXTT1=
EXTT2=
EXTT3=
EXTT4=
EXTT5=
EXTT6=
EXTT7=
EXTT8=
EXTT9=
EXTT10=
EXTT11=
EXTT12=
EXTT13=
EXTT14=
PLAYORDER=
